# xmcd
#
# Track frame offsets: 
#        150
#        26655
#        51160
#        72710
#        101717
#        112505
#        134042
#        151392
#        172890
#        190860
#
# Disc length: 2808 seconds
#
# Revision: 2
# Processed by: cddbd v1.5.2PL0 Copyright (c) Steve Scherf et al.
# Submitted via: ExactAudioCopyFreeDBPlugin 1.0
#
DISCID=870af60a
DTITLE=Venja - Curves (1999)
DYEAR=1999
DGENRE=New Age
TTITLE0=Reaching Out
TTITLE1=The Garden Of Make Believe
TTITLE2=L.A. Night Chase
TTITLE3=60's Flowers
TTITLE4=Oxygen And Bubble
TTITLE5=Groove Delight
TTITLE6=The Garden Of Make Believe (Radio)
TTITLE7=Afloat
TTITLE8=Buchstabe Suppe
TTITLE9=Moving On Curves
EXTD=YEAR: 1999
EXTT0=
EXTT1=
EXTT2=
EXTT3=
EXTT4=
EXTT5=
EXTT6=
EXTT7=
EXTT8=
EXTT9=
PLAYORDER=
